<svg width="1836" height="304" viewBox="0 0 1836 304" fill="none" xmlns="http://www.w3.org/2000/svg">
<path fill-rule="evenodd" clip-rule="evenodd" d="M0 241.932L76.5 215.117C153 188.302 306 134.672 459 141.376C612 148.08 765 215.117 918 215.117C1071 215.117 1224 148.08 1377 101.154C1530 54.2276 1683 27.4126 1759.5 14.0051L1836 0.597656V322.377H1759.5C1683 322.377 1530 322.377 1377 322.377C1224 322.377 1071 322.377 918 322.377C765 322.377 612 322.377 459 322.377C306 322.377 153 322.377 76.5 322.377H0V241.932Z" fill="#FDC435"/>
</svg>
