<svg width="1826" height="348" viewBox="0 0 1826 348" fill="none" xmlns="http://www.w3.org/2000/svg">
<path fill-rule="evenodd" clip-rule="evenodd" d="M0 261.058L76.0833 232.077C152.167 203.096 304.333 145.135 456.5 152.38C608.667 159.625 760.833 232.077 913 232.077C1065.17 232.077 1217.33 159.625 1369.5 108.909C1521.67 58.1926 1673.83 29.2118 1749.92 14.7215L1826 0.231079V348H1749.92C1673.83 348 1521.67 348 1369.5 348C1217.33 348 1065.17 348 913 348C760.833 348 608.667 348 456.5 348C304.333 348 152.167 348 76.0833 348H0V261.058Z" fill="#FDC435"/>
</svg>
