<svg width="715" height="767" viewBox="0 0 715 767" fill="none" xmlns="http://www.w3.org/2000/svg">
<path fill-rule="evenodd" clip-rule="evenodd" d="M425.656 -174.743C524.656 -169.924 636.156 -161.76 696.602 -83.2774C752.492 -10.7116 707.576 168.013 723.541 258.177C736.376 330.664 784.278 394.964 773.408 467.772C761.367 548.434 722.976 625.409 660.826 678.279C595.734 733.652 509.52 780.178 425.656 763.598C344.372 747.528 319.052 642.139 249.605 596.98C173.621 547.57 41.1466 574.65 6.41436 490.98C-27.6103 409.015 83.7407 337.014 106.035 251.12C130.73 155.974 79.4035 41.028 142.725 -34.1982C208.328 -112.134 323.854 -179.699 425.656 -174.743Z" fill="#FDB935"/>
</svg>
